<?xml version="1.0" encoding="UTF-8"?>
<svg xmlns="http://www.w3.org/2000/svg" xmlns:xlink="http://www.w3.org/1999/xlink" width="2250" height="2250" viewBox="0 0 2250 2250">
<rect x="-225" y="-225" width="2700" height="2700" fill="rgb(97.65625%, 97.65625%, 97.65625%)" fill-opacity="1"/>
<path fill-rule="nonzero" fill="rgb(44.700623%, 12.547302%, 0.784302%)" fill-opacity="1" d="M 671.324219 1059.410156 L 1462.171875 1054.609375 C 1462.171875 1054.609375 1476.550781 1888.589844 1419.03125 1984.449219 C 1371.410156 2063.824219 787.988281 2067.105469 748.011719 2003.621094 C 666.535156 1874.210938 671.324219 1059.410156 671.324219 1059.410156 Z M 671.324219 1059.410156 "/>
<path fill-rule="nonzero" fill="rgb(44.700623%, 12.547302%, 0.784302%)" fill-opacity="1" d="M 1490.859375 1226.550781 C 1478.191406 1226.488281 1467.070312 1226.601562 1458.871094 1226.671875 C 1458.96875 1263.746094 1458.96875 1304.503906 1458.761719 1348.207031 C 1462.378906 1348.207031 1466.328125 1348.15625 1470.769531 1348.207031 C 1495.820312 1348.320312 1530.589844 1349.390625 1537.910156 1354.269531 C 1549.628906 1362.078125 1574.609375 1629.441406 1555.488281 1656.890625 C 1539.878906 1679.292969 1484.140625 1679.90625 1451.96875 1678.253906 C 1450.179688 1720.828125 1447.988281 1761.589844 1445.261719 1798.71875 C 1497.539062 1802.285156 1608.621094 1804.515625 1637.960938 1762.402344 C 1671.160156 1714.753906 1627.789062 1250.640625 1607.449219 1237.089844 C 1594.75 1228.609375 1534.378906 1226.761719 1490.890625 1226.558594 Z M 1490.859375 1226.550781 "/>
<path fill-rule="nonzero" fill="rgb(84.375%, 49.804688%, 7.835388%)" fill-opacity="1" d="M 898.65625 1025.261719 C 898.65625 1025.261719 817.476562 990.710938 808.84375 907.808594 C 801.960938 841.710938 819.207031 790.351562 871.019531 736.808594 C 929.667969 676.199219 822.660156 507.078125 822.660156 507.078125 C 822.660156 507.078125 965.914062 614.179688 979.835938 707.441406 C 996.214844 817.109375 928.054688 836.921875 893.476562 900.890625 C 865.542969 952.578125 898.65625 1025.261719 898.65625 1025.261719 Z M 898.65625 1025.261719 "/>
<path fill-rule="nonzero" fill="rgb(84.375%, 49.804688%, 7.835388%)" fill-opacity="1" d="M 1218.929688 950.691406 C 1218.929688 950.691406 1101.640625 900.78125 1089.160156 781 C 1079.210938 685.519531 1104.128906 611.308594 1179 533.960938 C 1263.730469 446.398438 1109.128906 202.058594 1109.128906 202.058594 C 1109.128906 202.058594 1316.089844 356.789062 1336.210938 491.53125 C 1359.871094 649.96875 1261.390625 678.589844 1211.441406 771.019531 C 1171.078125 845.691406 1218.929688 950.691406 1218.929688 950.691406 Z M 1218.929688 950.691406 "/>
<path fill-rule="nonzero" fill="rgb(84.375%, 49.804688%, 7.835388%)" fill-opacity="1" d="M 1272.929688 1135.058594 C 1177.148438 1134.191406 989.871094 1148.03125 916.066406 1148.03125 C 868.113281 1148.03125 755.523438 1144.628906 671.472656 1141.890625 C 671.554688 1155.089844 671.660156 1169.359375 671.824219 1185.039062 C 735.332031 1185.03125 810.429688 1185.808594 856.242188 1188.96875 C 947.5625 1195.269531 1240.421875 1173.21875 1315.988281 1176.371094 C 1348.761719 1177.738281 1407.390625 1181.46875 1463.511719 1185.269531 C 1463.429688 1172.058594 1463.339844 1160.75 1463.238281 1149.191406 C 1400.320312 1143.011719 1331.359375 1136.878906 1290.800781 1135.429688 C 1285.289062 1135.238281 1279.308594 1135.121094 1272.929688 1135.058594 Z M 1272.929688 1135.058594 "/>
<path fill-rule="nonzero" fill="rgb(84.375%, 49.804688%, 7.835388%)" fill-opacity="1" d="M 1292.058594 1837.285156 C 1193.230469 1836.417969 999.996094 1850.257812 923.84375 1850.257812 C 880.773438 1850.257812 787.984375 1847.6875 707.257812 1845.214844 C 709.328125 1859.964844 711.511719 1874.066406 713.824219 1887.398438 C 768.285156 1887.707031 824.628906 1888.6875 862.113281 1891.195312 C 956.339844 1897.492188 1258.511719 1875.449219 1336.488281 1878.597656 C 1361.160156 1879.59375 1400.148438 1881.863281 1441.859375 1884.484375 C 1443.289062 1872.875 1444.621094 1860.476562 1445.871094 1847.480469 C 1394.140625 1842.824219 1343.308594 1838.796875 1310.488281 1837.660156 C 1304.808594 1837.464844 1298.640625 1837.339844 1292.050781 1837.28125 Z M 1292.058594 1922.304688 C 1193.230469 1921.441406 999.996094 1935.28125 923.84375 1935.28125 C 883.492188 1935.28125 799.355469 1933.023438 722.4375 1930.703125 C 726.046875 1946.441406 729.902344 1960.523438 734.035156 1972.558594 C 781.878906 1972.992188 829.289062 1974.023438 862.113281 1976.21875 C 956.339844 1982.515625 1258.511719 1960.472656 1336.488281 1963.621094 C 1357.921875 1964.484375 1390.460938 1966.347656 1425.871094 1968.527344 C 1429.140625 1958.734375 1432.128906 1946.277344 1434.871094 1931.511719 C 1387.03125 1927.28125 1340.96875 1923.738281 1310.488281 1922.683594 C 1304.808594 1922.488281 1298.640625 1922.363281 1292.050781 1922.304688 Z M 1292.058594 1922.304688 "/>
</svg>
